<?xml version="1.0" encoding="utf-8"?>
<!-- Generator: Adobe Illustrator 24.2.1, SVG Export Plug-In . SVG Version: 6.00 Build 0)  -->
<svg version="1.1" id="图层_1" xmlns="http://www.w3.org/2000/svg" xmlns:xlink="http://www.w3.org/1999/xlink" x="0px" y="0px"
	 viewBox="0 0 830 347" style="enable-background:new 0 0 830 347;" xml:space="preserve">
<style type="text/css">
	.st0{opacity:0.7;}
	.st1{filter:url(#Adobe_OpacityMaskFilter);}
	.st2{fill-rule:evenodd;clip-rule:evenodd;fill:#FFFFFF;}
	.st3{mask:url(#mask-3_1_);fill-rule:evenodd;clip-rule:evenodd;fill:#FFFFFF;}
	.st4{filter:url(#Adobe_OpacityMaskFilter_1_);}
	.st5{mask:url(#mask-5_1_);fill-rule:evenodd;clip-rule:evenodd;fill:#FFFFFF;}
	.st6{opacity:0.7;fill-rule:evenodd;clip-rule:evenodd;fill:#333333;enable-background:new    ;}
	.st7{fill-rule:evenodd;clip-rule:evenodd;fill:#3ECF42;}
	.st8{fill-rule:evenodd;clip-rule:evenodd;fill:#F1960A;}
	.st9{fill-rule:evenodd;clip-rule:evenodd;fill:#C913F5;}
	.st10{filter:url(#Adobe_OpacityMaskFilter_2_);}
	.st11{opacity:0.7;mask:url(#mask-8_1_);fill-rule:evenodd;clip-rule:evenodd;fill:#FFFFFF;enable-background:new    ;}
	.st12{filter:url(#Adobe_OpacityMaskFilter_3_);}
	.st13{opacity:0.7;mask:url(#mask-11_1_);fill-rule:evenodd;clip-rule:evenodd;fill:#FFFFFF;enable-background:new    ;}
</style>
<g id="Page-1">
	<g id="Endorsements" transform="translate(-940.000000, -1339.000000)">
		<g id="endorsement-levels" transform="translate(953.000000, 1348.000000)">
			<g id="EL03" transform="translate(600.000000, 68.000000)">
				<g id="Group" class="st0">
					<g id="Group-3" transform="translate(148.355263, 6.818182)">
						<g id="Clip-2">
						</g>
						<defs>
							<filter id="Adobe_OpacityMaskFilter" filterUnits="userSpaceOnUse" x="0.2" y="0.4" width="55.6" height="82.5">
								<feColorMatrix  type="matrix" values="1 0 0 0 0  0 1 0 0 0  0 0 1 0 0  0 0 0 1 0"/>
							</filter>
						</defs>
						<mask maskUnits="userSpaceOnUse" x="0.2" y="0.4" width="55.6" height="82.5" id="mask-3_1_">
							<g class="st1">
								<polygon id="path-2_1_" class="st2" points="0.2,0.4 55.8,0.4 55.8,82.9 0.2,82.9 								"/>
							</g>
						</mask>
						<path id="Fill-1" class="st3" d="M9.5,0.4L3.7,9.5l-3.5,5.4c22.1,14.7,37.1,39.5,38.5,68l6.4-0.3l10.7-0.6
							C54.1,47.7,36.1,17.9,9.5,0.4"/>
					</g>
					<g id="Group-6" transform="translate(10.789474, 0.000000)">
						<g id="Clip-5">
						</g>
						<defs>
							<filter id="Adobe_OpacityMaskFilter_1_" filterUnits="userSpaceOnUse" x="0.3" y="0.3" width="179.9" height="169.7">
								<feColorMatrix  type="matrix" values="1 0 0 0 0  0 1 0 0 0  0 0 1 0 0  0 0 0 1 0"/>
							</filter>
						</defs>
						<mask maskUnits="userSpaceOnUse" x="0.3" y="0.3" width="179.9" height="169.7" id="mask-5_1_">
							<g class="st4">
								<polygon id="path-4_1_" class="st2" points="0.3,0.3 180.2,0.3 180.2,170 0.3,170 								"/>
							</g>
						</mask>
						<path id="Fill-4" class="st5" d="M131.1,147.4c-2.2,1.7-4.6,3.4-7.1,4.9c-24.3,14.3-53.6,11.4-74.6-4.8
							c-6.9-5.4-13-12.2-17.6-20.4c-4.6-8.2-7.4-16.9-8.5-25.7c-3.3-26.7,9-54,33.2-68.2c2.5-1.5,5.1-2.7,7.7-3.8
							c17.1-7.3,35.9-6.9,52.2,0c13.2,5.6,24.7,15.4,32.4,29c7.7,13.5,10.2,28.6,8.4,43.1C155,119.2,145.9,136,131.1,147.4
							 M156.1,54c-8.6-15.2-21.6-26.3-36.4-32.6l5.7-13.8c-6.1-2.6-12.5-4.6-19.1-5.8c-10.5-1.9-21.3-1.9-32,0
							C67.8,3,61.4,4.9,55.2,7.5l5.7,13.8c-2.9,1.2-5.8,2.7-8.6,4.3C25,41.7,11.3,72.4,15,102.4l-14.8,1.9C1.1,111,2.7,117.6,5,124
							c1.8,5.1,4,10,6.7,14.9c2.7,4.8,5.9,9.2,9.3,13.3c4.3,5.3,9.1,10,14.4,14l9-12.1c23.6,18.3,56.6,21.6,83.9,5.5
							c2.8-1.7,5.5-3.5,8-5.4l8.9,11.9c5.4-4.2,10.2-8.9,14.4-14c7-8.4,12.4-18,16-28.2c2.3-6.4,3.8-13,4.6-19.7l-14.6-1.9
							C167.6,86.2,164.7,69.2,156.1,54"/>
					</g>
					<path id="Fill-7" class="st2" d="M55.3,21.2l-3.4-5.3l-5.8-9.1C19.7,24.3,1.7,53.8,0,87.7l10.6,0.6l6.4,0.3
						C18.5,60.4,33.3,35.8,55.3,21.2"/>
					<path id="Fill-9" class="st2" d="M140.6,169.1c-11.6,5.8-24.8,9.2-38.8,9.2c-14,0-27.1-3.3-38.8-9.2l-2.9,5.6l-4.9,9.4
						c14,7,29.8,10.9,46.5,10.9s32.6-4,46.5-10.9l-4.9-9.4L140.6,169.1z"/>
				</g>
				<path id="Fill-5" class="st6" d="M163.2,92c0-34.3-27.8-62-62-62s-62,27.8-62,62s27.8,62,62,62S163.2,126.3,163.2,92"/>
				<g id="Group_1_" transform="translate(43.157895, 34.090909)">
					<path id="Fill-7_1_" class="st7" d="M5.3,58c0-27.7,21.4-50.4,48.5-52.4V0.3C23.8,2.3,0,27.4,0,58s23.8,55.7,53.8,57.7v-5.3
						C26.7,108.4,5.3,85.7,5.3,58"/>
					<path id="Fill-9_1_" class="st8" d="M61.4,0.3v5.3c16.1,1.2,30.2,9.6,38.9,22.1l4.3-3.1C94.9,10.8,79.3,1.5,61.4,0.3"/>
					<path id="Fill-11" class="st9" d="M103.8,34.3c3.9,7.3,6.1,15.7,6.1,24.6c0,27.7-21.4,50.4-48.5,52.4v5.3
						c30-2,53.8-27.1,53.8-57.7c0-10.1-2.6-19.5-7.1-27.8L103.8,34.3z"/>
				</g>
				<path id="_x33_" class="st2" d="M115,90.4c2.6,1.3,4.6,2.7,5.8,4.2c2.1,2.6,3.2,6,3.2,10c0,6.1-2.2,11-6.6,14.7
					c-3.7,3.2-8.6,4.8-14.7,4.8c-7.1,0-12.8-2.3-16.9-7c-2.8-3.2-4.4-7.2-4.8-12h12.3c0.6,5.1,3.6,7.7,9,7.7c3.1,0,5.4-0.9,6.9-2.8
					c1.2-1.4,1.9-3.2,1.9-5.3c0-1.9-0.5-3.5-1.4-4.9s-2.3-2.4-3.9-3c-1.4-0.5-3.7-0.7-6.9-0.8v-10c0.9,0,1.6,0,2,0
					c2.6,0,4.7-0.5,6.1-1.5c2.2-1.5,3.3-3.6,3.3-6.3c0-2.2-0.7-4.1-2.2-5.6c-1.5-1.5-3.4-2.2-5.6-2.2c-4.4,0-7,2.5-8.1,7.6H82.5
					c0.5-4.9,1.8-8.7,3.8-11.3c1.9-2.6,4.5-4.4,7.8-5.6c2.7-0.9,5.5-1.4,8.4-1.4c6.6,0,11.8,1.9,15.5,5.6c3.1,3.2,4.6,7,4.6,11.7
					C122.6,83.4,120.1,87.8,115,90.4z"/>
			</g>
			<g id="EL05" transform="translate(237.000000, 0.000000)">
				<g id="Group_2_">
					<g id="Clip-2_1_">
					</g>
					<defs>
						<filter id="Adobe_OpacityMaskFilter_2_" filterUnits="userSpaceOnUse" x="0" y="0" width="306" height="323">
							<feColorMatrix  type="matrix" values="1 0 0 0 0  0 1 0 0 0  0 0 1 0 0  0 0 0 1 0"/>
						</filter>
					</defs>
					<mask maskUnits="userSpaceOnUse" x="0" y="0" width="306" height="323" id="mask-8_1_">
						<g class="st10">
							<polygon id="path-7_1_" class="st2" points="0,0 306,0 306,323 0,323 							"/>
						</g>
					</mask>
					<path id="Fill-1_1_" class="st11" d="M195.4,93.2l2-2l13.2-13.6c-0.7-0.5-1.5-1-2.2-1.4c-0.4-0.3-0.8-0.6-1.3-0.8
						c-0.4-0.2-0.8-0.5-1.2-0.7c-0.3-0.2-0.6-0.3-0.9-0.5c-0.3-0.2-0.6-0.3-0.9-0.5c-0.7-0.4-1.4-0.7-2.1-1.1
						c-0.5-0.3-1-0.5-1.5-0.8c-0.4-0.2-0.7-0.4-1.1-0.6c-2.1-1-4.3-2-6.4-2.9c-0.2-0.1-0.5-0.2-0.7-0.3c-0.7-0.3-1.3-0.6-2-0.8
						L173,0l-14.7,10.7v49.6v21.5v0c2.9,0.2,5.8,0.5,8.8,1c1.4,0.2,2.7,0.6,4.1,0.9c0,0,0,0,0,0c0.4,0.1,0.8,0.2,1.3,0.3
						c1.1,0.3,2.3,0.5,3.4,0.8c0.8,0.2,1.5,0.5,2.3,0.7c0.7,0.2,1.4,0.5,2.1,0.7c1.5,0.5,3,1,4.4,1.6c1.3,0.5,2.6,1.1,3.8,1.7
						c1.7,0.8,3.3,1.6,4.9,2.5C194.1,92.5,194.7,92.8,195.4,93.2C195.4,93.2,195.4,93.2,195.4,93.2z M180.7,248.9l-0.1-0.3
						c-5.4,1.9-11,3.2-16.7,4l-4,14.2h-14.3l-4-14.3c-3.5-0.5-7-1.1-10.5-2.1c-2-0.5-3.8-1.2-5.7-1.9l-0.1,0.3l-5,18.4l-0.5,1.9
						c0.1,0,0.1,0,0.2,0.1h-0.2L141,323h24l21.1-53.6c0,0,0.1,0,0.1,0l-0.5-2L180.7,248.9z M257.3,185.2c0.2-1,0.3-2,0.4-3
						c0.2-1.3,0.3-2.6,0.4-4c0.3-3.5,0.5-7,0.5-10.5c0-0.2,0-0.4,0-0.5c0-0.1,0-0.3,0-0.4c0-1.4,0-2.8-0.1-4.2c0-0.3,0-0.5-0.1-0.8
						l-18.2,4.9l-2.8,0.7c0,0.1,0,0.2,0,0.4c0,3-0.2,6-0.5,9c0,0.3-0.1,0.6-0.1,0.9c-0.3,2.9-0.9,5.8-1.5,8.7
						c-0.1,0.3-0.1,0.6-0.2,0.9c-1.5,6.3-3.6,12.4-6.5,18.3l0,0l18.3,10.7l42.4,24.8l16.5-7.5L257.3,185.2z M241.9,225.7L223.5,215
						c-0.3,0.5-0.7,0.9-1,1.3c-1.3,1.9-2.6,3.7-4,5.4c-0.7,0.9-1.4,1.7-2.2,2.6c-1.2,1.4-2.5,2.7-3.7,4c-0.9,0.9-1.9,1.9-2.8,2.7
						c-1.3,1.2-2.6,2.3-3.9,3.4c-1,0.8-2,1.7-3.1,2.5c-1.8,1.3-3.6,2.5-5.5,3.7c-0.7,0.4-1.3,0.9-1.9,1.3c0,0,0,0,0,0l0.7,2.8
						L201,263l0,0.1c1.2-0.6,2.5-1.3,3.7-1.9c0.4-0.2,0.8-0.4,1.2-0.7c0.6-0.4,1.2-0.7,1.8-1.1c2-1.3,4-2.6,5.9-4
						c0.8-0.6,1.5-1.1,2.3-1.7c1.5-1.1,2.9-2.2,4.3-3.4l65.9,18.5l-1.8-18.2L241.9,225.7z M49.6,145.6c0,0.1,0,0.1,0,0.2l1.9,0.5
						l18.2,4.9l0.3,0.1c0.4-2,0.7-4,1.3-6c0.9-3.6,2.1-7,3.5-10.4l-10.5-11l7.2-12.6L86,115c3.4-4.5,7.3-8.7,11.5-12.4l-0.2-0.2
						L84.1,88.9l-1.5-1.5c0,0,0,0-0.1,0.1l-56.4-8.2l-12,21.1l35.2,45.4L49.6,145.6z M208.4,102.7c4.2,3.7,8,7.8,11.3,12.3l14.3-3.6
						l7.2,12.6L231,134.7c2.2,5.3,3.9,10.9,5,16.6l0.3-0.1l18.2-4.9l2-0.5c0,0,0,0,0-0.1l0,0l35.2-45.4l-12-21.1l-56.4,8.2l0,0
						c0,0,0,0,0,0l-1.4,1.4l-13.2,13.6L208.4,102.7z M108.7,91.2l2,2l0,0c5.6-3.3,11.5-5.9,17.7-7.8c0.2,0,0.3-0.1,0.5-0.1
						c0,0,0,0,0,0c2-0.6,4-1,6-1.5c1-0.2,1.9-0.5,2.9-0.7c0.1,0,0.3,0,0.4-0.1c0.1,0,0.1,0,0.2,0c1.3-0.2,2.6-0.3,3.9-0.5
						c1.8-0.2,3.5-0.5,5.3-0.7c0,0,0.1,0,0.1,0c0,0,0.1,0,0.1,0h0V60.4V10.7L133.1,0L116,67.1c-1.3,0.5-2.6,1-3.9,1.6
						c-0.3,0.1-0.5,0.3-0.8,0.4c-1.6,0.7-3.1,1.4-4.7,2.2c-0.7,0.3-1.4,0.7-2.1,1.1c-1.5,0.8-3.1,1.6-4.6,2.5
						c-0.6,0.4-1.2,0.7-1.8,1.1c-0.7,0.4-1.4,0.8-2.1,1.3c-0.2,0.1-0.4,0.3-0.6,0.4l0,0L108.7,91.2z M77.2,205.7L77.2,205.7
						c-0.2-0.4-0.3-0.7-0.5-1.1c-0.5-1.1-0.9-2.2-1.4-3.3c-0.3-0.7-0.6-1.4-0.9-2.2c-0.3-0.7-0.5-1.3-0.8-2c-0.1-0.3-0.3-0.7-0.4-1
						c-0.6-1.8-1.2-3.7-1.7-5.6c-0.2-0.7-0.4-1.3-0.6-2c0,0,0,0,0,0c-0.2-0.8-0.4-1.6-0.5-2.4c0,0,0,0,0,0c-0.5-2.5-1-5-1.3-7.6
						c-0.1-1.1-0.2-2.2-0.3-3.2c-0.2-2-0.3-4.1-0.4-6.2c0-0.5-0.1-1-0.1-1.6c0,0,0,0,0,0l-2.7-0.7l-18.2-4.9c0,0.3,0,0.5,0,0.8
						c0,0.1,0,0.2,0,0.3c-0.1,1-0.1,2.1-0.1,3.1c0,0.2,0,0.5,0,0.7c0,0.2,0,0.5,0,0.7c0,0.7,0,1.4,0.1,2.2c0,0.2,0,0.4,0.1,0.6
						c0.1,5,0.6,10,1.4,14.8L0,233.8l16.5,7.5L59,216.4L77.2,205.7z M95.1,230.1c-0.8-0.7-1.4-1.5-2.2-2.3
						c-3.7-3.8-7.1-7.8-10.1-12.3c-0.1-0.2-0.3-0.3-0.4-0.5l-18.3,10.7l-42.5,24.9l-1.9,18.2h0l65.9-18.5c0.1,0,0.1,0.1,0.2,0.1
						c1,0.9,2.1,1.7,3.1,2.5c0.9,0.7,1.9,1.3,2.8,2c0.5,0.3,0.9,0.7,1.4,1c0.4,0.3,0.8,0.6,1.2,0.8c0.8,0.5,1.6,1,2.4,1.5
						c1.1,0.7,2.1,1.4,3.2,2c0.1,0.1,0.2,0.1,0.3,0.2c0.7,0.4,1.3,0.7,2,1.1c0.7,0.4,1.3,0.8,2,1.1c0,0,0,0,0.1,0
						c0.2,0.1,0.4,0.2,0.6,0.3l5-18.4l0.8-2.8c-0.1,0-0.1-0.1-0.2-0.1C105,238.4,99.8,234.5,95.1,230.1z"/>
				</g>
				<path id="Fill-5_1_" class="st6" d="M227.8,167.6c0-42.2-33.8-76.3-75.5-76.3s-75.5,34.2-75.5,76.3s33.8,76.3,75.5,76.3
					S227.8,209.8,227.8,167.6"/>
				<g id="Group_3_" transform="translate(82.229075, 95.400844)">
					<path id="Fill-7_2_" class="st7" d="M6.5,71.5C6.5,37.3,32.6,9.4,65.7,7V0.4C29,2.8,0,33.7,0,71.5s29,68.6,65.7,71.1V136
						C32.6,133.6,6.5,105.6,6.5,71.5"/>
					<path id="Fill-9_2_" class="st8" d="M75,0.4V7c19.6,1.4,36.8,11.9,47.5,27.2l5.3-3.8C115.9,13.4,96.8,1.8,75,0.4"/>
					<path id="Fill-11_1_" class="st9" d="M126.7,42.2c4.8,9.1,7.5,19.4,7.5,30.4c0,34.1-26.1,62.1-59.2,64.5v6.6
						c36.7-2.4,65.7-33.3,65.7-71.1c0-12.4-3.1-24.1-8.7-34.2L126.7,42.2z"/>
				</g>
				<path id="_x35_" class="st2" d="M174.6,129.5v13h-23.2l-1.7,11.6c8.7,0,15.3,1.5,19.7,4.7c3.6,2.7,6.3,6.1,8,10.4
					c1.2,3.1,1.9,6.4,1.9,9.7c0,7.8-2.8,14.4-8.5,19.6c-5.3,4.9-11.7,7.3-19.3,7.3c-7.5,0-14.8-1.9-22-5.8l2.5-15.3
					c6.2,5,12.4,7.5,18.8,7.5c3.6,0,6.7-1.2,9.2-3.6s3.7-5.3,3.7-8.8c0-4.3-1.7-7.7-5-10.2c-3-2.3-6.5-3.4-10.5-3.4
					c-4.1,0-8.9,1.6-14.3,4.7l6.1-41.4H174.6z"/>
			</g>
			<g id="EL01" transform="translate(0.000000, 76.000000)">
				<g id="Group-4">
					<g id="Clip-3">
					</g>
					<defs>
						<filter id="Adobe_OpacityMaskFilter_3_" filterUnits="userSpaceOnUse" x="0" y="0.6" width="180.2" height="168.4">
							<feColorMatrix  type="matrix" values="1 0 0 0 0  0 1 0 0 0  0 0 1 0 0  0 0 0 1 0"/>
						</filter>
					</defs>
					<mask maskUnits="userSpaceOnUse" x="0" y="0.6" width="180.2" height="168.4" id="mask-11_1_">
						<g class="st12">
							<polygon id="path-10_1_" class="st2" points="0,0.6 180.2,0.6 180.2,169 0,169 							"/>
						</g>
					</mask>
					<path id="Fill-2" class="st13" d="M90.1,154.2c-38.1,0-69-31.1-69-69.4c0-38.3,30.9-69.4,69-69.4s69,31.1,69,69.4
						C159.1,123.1,128.2,154.2,90.1,154.2 M123.3,0.6L118.1,9c-8.7-3.3-18.2-5.1-28-5.1S70.8,5.8,62,9l-5.2-8.4
						C23.6,13.9,0,46.6,0,84.8C0,123,23.5,155.7,56.8,169l5.2-8.4c8.7,3.3,18.2,5.2,28.1,5.2s19.3-1.9,28.1-5.2l5.2,8.4
						c33.3-13.3,56.8-46,56.8-84.2C180.2,46.6,156.6,13.9,123.3,0.6"/>
				</g>
				<path id="Fill-5_2_" class="st6" d="M151.3,83.8c0-34.2-27.8-62-62.1-62S27,49.6,27,83.8s27.8,62,62.1,62
					S151.3,118.1,151.3,83.8"/>
				<g id="Group_4_" transform="translate(31.067164, 25.895161)">
					<path id="Fill-7_3_" class="st7" d="M5.3,58c0-27.7,21.4-50.4,48.6-52.4V0.3C23.8,2.3,0,27.4,0,58s23.8,55.7,53.9,57.7v-5.3
						C26.7,108.4,5.3,85.7,5.3,58"/>
					<path id="Fill-9_3_" class="st8" d="M61.5,0.3v5.3c16.1,1.2,30.2,9.6,39,22.1l4.3-3.1C95.1,10.8,79.4,1.5,61.5,0.3"/>
					<path id="Fill-11_2_" class="st9" d="M104,34.3c3.9,7.3,6.1,15.7,6.1,24.6c0,27.7-21.4,50.4-48.6,52.4v5.3
						c30.1-2,53.9-27,53.9-57.7c0-10.1-2.6-19.5-7.1-27.8L104,34.3z"/>
				</g>
				<polygon id="_x31_" class="st2" points="97.3,54.5 97.3,118.6 84.8,118.6 84.8,65.5 75.6,65.5 75.6,54.5 				"/>
			</g>
		</g>
	</g>
</g>
</svg>
