<svg xmlns="http://www.w3.org/2000/svg" viewBox="0 0 40 40">
    <g id="_0" data-name="0">
        <path d="M25 7.63l-.78 1.26a11.93 11.93 0 0 0-8.43 0L15 7.63a13.55 13.55 0 0 0 0 25.18l.78-1.25a11.93 11.93 0 0 0 8.44 0l.78 1.25a13.55 13.55 0 0 0 0-25.18zm-5 23a10.38 10.38 0 1 1 10.38-10.41A10.38 10.38 0 0 1 20 30.6z"/>
    </g>
    <g id="_1" data-name="1">
        <path d="M25 7.63l-.78 1.26a11.93 11.93 0 0 0-8.43 0L15 7.63a13.55 13.55 0 0 0 0 25.18l.78-1.25a11.93 11.93 0 0 0 8.44 0l.78 1.25a13.55 13.55 0 0 0 0-25.18zm-5 23a10.38 10.38 0 1 1 10.38-10.41A10.38 10.38 0 0 1 20 30.6z"/>
    </g>
    <g id="_2" data-name="2">
        <path d="M34.26 21.19h-3.94a10.42 10.42 0 0 1-1.57 4.6 10.42 10.42 0 0 1-.9 1.21c-.13.16-.28.3-.42.45a10.31 10.31 0 0 1-5.49 3v3.26a13.56 13.56 0 0 0 7-3.3L28 28.57a11.68 11.68 0 0 0 2-2.63c.1-.18.19-.36.28-.54l1.21-.3 1.15-.29.89-.22.94-.24 1.79-.45-.65-2.71h-1.35z"/>
        <path d="M35.63 16.35l-1.94-.49h-.07l-.44-.11-.46-.12-2.36-.63c-.09-.18-.18-.37-.28-.54a11.68 11.68 0 0 0-2-2.63l.93-1.8a13.56 13.56 0 0 0-7-3.3V10a10.31 10.31 0 0 1 5.49 3c.15.15.29.3.43.46a10.42 10.42 0 0 1 .87 1.15 10.41 10.41 0 0 1 1.57 4.6h5.33l.65-2.71z"/>
        <path d="M11.8 11.85a11.69 11.69 0 0 0-2 2.59c-.11.19-.21.39-.31.59l-1.21.3-1.15.29-.89.22-2.74.69.65 2.71h5.53a10.48 10.48 0 0 1 1.58-4.6v-.07a10.44 10.44 0 0 1 .84-1.1l.32-.34A10.31 10.31 0 0 1 18.06 10V6.74a13.56 13.56 0 0 0-7.18 3.32z"/>
        <path d="M12.2 27a10.44 10.44 0 0 1-.9-1.17l-.05-.07a10.47 10.47 0 0 1-1.58-4.6H4.13l-.64 2.74 1.79.45.94.24.89.22 1.15.29 1.21.3c.1.21.21.42.33.62a11.7 11.7 0 0 0 2 2.56l-.92 1.79a13.55 13.55 0 0 0 7.18 3.32v-3.28a10.31 10.31 0 0 1-5.6-3.11z"/>
    </g>
    <g id="_3" data-name="3">
        <path d="M28.47 7.19l-.89 1.37-.53.81a12.92 12.92 0 0 1 5.86 10.17l1-.05 1.63-.09a15.52 15.52 0 0 0-7.07-12.21z"/>
        <path d="M30.09 14.39a11.58 11.58 0 0 0-5.59-4.9l.87-2.08a13.72 13.72 0 0 0-7.83-.87 13.81 13.81 0 0 0-2.93.86l.87 2.08a11.11 11.11 0 0 0-1.32.65 11.63 11.63 0 0 0-5.7 11.56L6.19 22a14.11 14.11 0 0 0 5.38 9.32L13 29.48a11.64 11.64 0 0 0 12.87.83 11.11 11.11 0 0 0 1.22-.82l1.37 1.8a14 14 0 0 0 4.67-6.34 14 14 0 0 0 .71-3l-2.24-.28a11.58 11.58 0 0 0-1.51-7.28zm-3.82 14.07A10.35 10.35 0 1 1 24 10.68a10.35 10.35 0 0 1 2.26 17.78z"/>
        <path d="M12.95 9.37l-.52-.8-.89-1.37a15.52 15.52 0 0 0-7.06 12.2l1.63.09 1 .05a12.92 12.92 0 0 1 5.84-10.17z"/>
        <path d="M25.87 31.75a12.87 12.87 0 0 1-11.74 0l-.44.86-.69 1.45a15.53 15.53 0 0 0 14.1 0l-.74-1.46z"/>
    </g>
    <g id="_4" data-name="4">
        <path d="M15.26 7.47l.4.17 1 .4-.19 1-.28 1.52a10.29 10.29 0 0 1 7.68 0l-.28-1.52-.19-1 1-.4.4-.17a13.42 13.42 0 0 0-9.48 0z"/>
        <path d="M31.38 25.05l-2.47.46a10.37 10.37 0 0 1-.66 1l1 1.85-1.09 1.09-1.85-1a10.38 10.38 0 0 1-1 .66l-.46 2.47 1.54.64 6 2.51 2.12-2.12L32 26.6z"/>
        <path d="M31.15 23.78l1-.19.4 1 .17.4a13.41 13.41 0 0 0 0-9.48l-.17.4-.4 1-1-.19-1.52-.28a10.29 10.29 0 0 1 0 7.68z"/>
        <path d="M23.37 32.39l.19-1 .28-1.52a10.29 10.29 0 0 1-7.68 0l.28 1.52.19 1-1 .4-.4.17a13.41 13.41 0 0 0 9.48 0l-.4-.17z"/>
        <path d="M8.85 16.66l-1 .19-.4-1-.17-.4a13.42 13.42 0 0 0 0 9.48l.17-.4.4-1 1 .19 1.52.28a10.29 10.29 0 0 1 0-7.68z"/>
        <path d="M14.71 29.13v-.17c-.15-.08-.29-.17-.44-.26s-.3-.16-.44-.26h-.06l-1.85 1-1.09-1.09 1-1.85v-.06a7.6 7.6 0 0 1-.52-.89h-.17l-2.47-.46L8 26.6l-2.51 6 2.12 2.12 6-2.51 1.54-.64-.24-1.32z"/>
        <path d="M7.59 5.69L5.47 7.8l2.51 6 .64 1.54 2.47-.46a10.38 10.38 0 0 1 .66-1l-1-1.85L11.88 11l1.85 1a10.36 10.36 0 0 1 1-.66l.21-1.15.24-1.32-1.56-.67z"/>
        <path d="M26.27 12l2.31-1.42 1.09 1.09-.73 1.19-.69 1.14a10.4 10.4 0 0 1 .66 1l2.47.46.62-1.62 2.51-6-2.1-2.15-6 2.51-1.54.64.46 2.47a10.38 10.38 0 0 1 .94.69z"/>
    </g>
    <g id="_5" data-name="5">
        <path d="M12.92 27.76c-.09-.09-.17-.19-.26-.28A10.53 10.53 0 0 1 11.42 26v-.06l-2.28 1.29-5.2 3-.23 2.2 8.06-2.23.38.31.34.24.17.12.14.1.3.18.39.24.24.14.24.14h.08l.61-2.22.09-.34a10.39 10.39 0 0 1-1.83-1.35zm-2.19-2.94l-.06-.13c-.06-.13-.12-.27-.17-.4l-.12-.29-.1-.24v-.12c-.08-.22-.14-.45-.2-.68s-.05-.16-.07-.24l-.07-.29c-.07-.3-.12-.6-.16-.91v-.39-.75-.19l-.34-.09-2.23-.59v1.03a12.83 12.83 0 0 0 .18 1.79l-6 5.87 2 .91 5.2-3zM14.57 11l.24.24a10.4 10.4 0 0 1 2.19-.93h.06c.24-.07.49-.12.73-.18l.35-.08h.07l.47-.06c.22 0 .43-.06.65-.08V1.3L17.56 0l-2.1 8.1-.46.18h-.1l-.57.26-.25.13-.56.3-.22.13-.3.21v.05zm12.21 1.39a10.35 10.35 0 0 1 1.39 1.48l1.76-.44.87 1.57-1.25 1.3a10.35 10.35 0 0 1 .61 2l2.23-.59.24-.06L37 12.11l-1.49-2.55-6.9 1-.17.17-1.62 1.64zM7.34 17.57l.23.06 2.23.59c0-.24.09-.48.15-.72a10.41 10.41 0 0 1 .43-1.25L9.14 15l.86-1.56 1.79.44a10.35 10.35 0 0 1 1.41-1.49l-1.62-1.64-.18-.18-6.9-1L3 12.11l4.31 5.48zm23.53 9.67l-2.24-1.29-.12.16c-.16.22-.32.44-.49.65l-.27.31c-.15.17-.3.33-.46.49l-.35.33-.48.41-.38.3c-.22.16-.44.3-.67.44l-.24.16.09.33.6 2.21.45-.24.15-.08.22-.14c.25-.15.49-.31.72-.48l.28-.21.52-.41 8.06 2.23-.22-2.2zm1.89-4.89v-.36c0-.12 0-.32.05-.48 0-.42.07-.84.07-1.27v-.11-.5-.09l-2.23.59-.34.09a10.38 10.38 0 0 1-.06 1.09v.11a10.4 10.4 0 0 1-.18 1.05v.11a10.47 10.47 0 0 1-.79 2.21l2.24 1.29 5.19 3 2-.9zM23.4 30a10.34 10.34 0 0 1-2 .48l-.49 1.71H19.1l-.49-1.72a10.41 10.41 0 0 1-1.28-.25c-.24-.06-.47-.15-.7-.23L16 32.26l-.06.23L18.53 39h2.94l2.59-6.47-.06-.27zm1.79-18.8l.24-.25 1.62-1.64-.27-.17-.16-.1-.14-.04-.11-.06-.11-.06-.26-.14-.19-.1-.13-.07c-.26-.13-.52-.25-.79-.35h-.09l-.25-.1L22.44 0l-1.8 1.3v8.57a10.33 10.33 0 0 1 1.07.13l.5.11h.15l.42.1.28.09.26.08.54.2.47.21.6.3.24.12z"/>
    </g>
    <defs>
        <style>
            g{fill:#fff;display:none}g:target{display:inline}
        </style>
    </defs>
</svg>
