<svg xmlns="http://www.w3.org/2000/svg" xmlns:xlink="http://www.w3.org/1999/xlink" viewBox="0 0 400 232">
  <defs>
    <style>
      .cls-1 {
        fill: #f2f1ed;
      }

      .cls-2 {
        fill: #ed891d;
      }

      .cls-13, .cls-3 {
        fill: #3d3e7c;
      }

      .cls-4 {
        fill: none;
        stroke: #fff;
        stroke-miterlimit: 10;
      }

      .cls-5 {
        font-size: 10.57px;
      }

      .cls-12, .cls-5, .cls-6, .cls-7, .cls-9 {
        fill: #f0edf2;
      }

      .cls-12, .cls-13, .cls-16, .cls-5, .cls-7, .cls-9 {
        font-family: BebasNeue-Regular, Bebas Neue;
      }

      .cls-7 {
        font-size: 38px;
      }

      .cls-8 {
        letter-spacing: -0.09em;
      }

      .cls-9 {
        font-size: 12.25px;
      }

      .cls-10, .cls-11 {
        fill: #293650;
      }

      .cls-11 {
        fill-rule: evenodd;
      }

      .cls-12, .cls-13 {
        font-size: 19.68px;
      }

      .cls-14 {
        letter-spacing: 0em;
      }

      .cls-15 {
        letter-spacing: -0.05em;
      }

      .cls-16 {
        font-size: 26px;
      }

      .cls-17 {
        font-size: 10px;
        font-family: MicrosoftYaHei, Microsoft YaHei;
      }
    </style>
  </defs>
  <g id="背景">
    <g>
      <rect class="cls-1" y="147.64" width="400" height="84.36"/>
      <rect class="cls-2" y="47.45" width="400" height="100.18"/>
      <rect class="cls-3" width="400" height="47.45"/>
    </g>
  </g>
  <g id="顶栏">
    <g id="赞赏等级">
      <circle id="fix" class="cls-4" cx="351" cy="25" r="7.91"/>
      <text id="等级" class="cls-5" transform="translate(348.5 28.99) scale(1.11 1)">1</text>
      <g id="_5" data-name=" 5">
        <path class="cls-6" d="M344.48,29.75l-.25-.27a10.21,10.21,0,0,1-1.16-1.38V28l-2.14,1.21-4.87,2.81-.22,2.07L343.4,32l.36.3.31.22.16.11.14.1.28.17.36.22.23.13.22.13h.08l.57-2.08.08-.32A10.05,10.05,0,0,1,344.48,29.75ZM342.42,27l-.05-.12c-.06-.12-.11-.26-.16-.38l-.11-.27L342,26v-.12c-.07-.2-.13-.42-.19-.64a1.71,1.71,0,0,0-.06-.22l-.07-.27c-.06-.28-.11-.56-.15-.86V22.65l-.32-.09L339.12,22v1a13.31,13.31,0,0,0,.17,1.67l-5.63,5.51,1.88.85,4.88-2.81ZM346,14l.22.22a10.27,10.27,0,0,1,2.05-.87h.06l.69-.17.32-.07h.07l.44-.06c.21,0,.4-.06.61-.07V4.93l-1.66-1.22-2,7.6-.43.17h-.09l-.54.24-.23.12-.53.28-.21.13-.28.19v.05Zm11.45,1.3a10.05,10.05,0,0,1,1.3,1.39l1.65-.41.82,1.47L360.07,19a9.42,9.42,0,0,1,.58,1.87l2.09-.55.22-.05,4.1-5.2-1.4-2.39-6.47.94-.16.16-1.52,1.53Zm-18.24,4.86.22.06,2.09.55a3.29,3.29,0,0,1,.14-.68A10.16,10.16,0,0,1,342.1,19l-1.17-1.17.81-1.46,1.68.41a9.2,9.2,0,0,1,1.32-1.4l-1.52-1.54-.17-.16-6.47-.94-1.41,2.38,4.05,5.14Zm22.07,9.07-2.1-1.21-.11.15c-.15.21-.3.41-.46.61l-.25.29c-.14.16-.29.31-.44.46l-.32.31-.45.38-.36.28c-.21.15-.41.29-.63.42l-.22.15.08.31.56,2.07.43-.23.14-.07.2-.13a8,8,0,0,0,.68-.45l.26-.2.49-.38,7.56,2.09L366.16,32Zm1.77-4.59v-.33a1.48,1.48,0,0,1,.05-.45c0-.4.07-.79.07-1.2V22l-2.09.55-.32.09a8.72,8.72,0,0,1-.06,1v.1a8.54,8.54,0,0,1-.17,1v.1a10.22,10.22,0,0,1-.74,2.07l2.1,1.21L366.79,31l1.87-.84Zm-8.77,7.18a10.09,10.09,0,0,1-1.88.45L352,33.9h-1.7l-.46-1.61a8.5,8.5,0,0,1-1.2-.24c-.22,0-.44-.14-.65-.21L347.37,34l-.06.21,2.43,6.11h2.76l2.43-6.07-.06-.25ZM356,14.22l.22-.24,1.52-1.54-.25-.16-.15-.09-.13,0-.11-.05L357,12l-.25-.13-.17-.09-.13-.07c-.24-.12-.48-.23-.74-.33h-.08l-.23-.09-2-7.62-1.69,1.22v8a8.52,8.52,0,0,1,1,.12l.47.1h.14l.4.1.26.08.24.08.51.18.44.2.56.28.23.12Z" transform="translate(0 2)"/>
      </g>
    </g>
    <g id="玩家名">
      <image width="128" height="128" transform="translate(5 7) scale(0.27)" xlink:href="avatar.png"/>
      <text class="cls-7" transform="matrix(0.97, 0, -0.26, 0.97, 50.22, 38.69)">Zxil<tspan class="cls-8" x="49.55" y="0">l</tspan><tspan x="59.28" y="0">y</tspan></text>
    </g>
    <g id="等级-2" data-name="等级">
      <image width="256" height="256" transform="translate(254 2) scale(0.18)" xlink:href="level.png"/>
      <image width="256" height="128" transform="translate(255 24) scale(0.17)" xlink:href="level_star.png"/>
      <text id="等级-3" data-name="等级" class="cls-9" transform="translate(268 28.63) scale(1.11 1)">123</text>
    </g>
  </g>
  <g id="中栏">
    <g id="分数">
      <text class="cls-7" transform="matrix(0.97, 0, -0.26, 0.97, 40.37, 110.51)">1642</text>
      <text class="cls-7" transform="matrix(0.97, 0, -0.26, 0.97, 310.37, 110.96)">1600</text>
      <text class="cls-7" transform="matrix(0.97, 0, -0.26, 0.97, 176.37, 110.51)">1637</text>
    </g>
    <g id="图标">
      <path class="cls-10" d="M30,92.23V97a2.28,2.28,0,0,1-.31,1.23,29.49,29.49,0,0,1-9.08,10.16,1,1,0,0,1-1.23,0,29.6,29.6,0,0,1-9-10A2.89,2.89,0,0,1,10.07,97c0-3,.07-6,0-9-.08-2.23,1.61-2.54,3.08-2.92A29.79,29.79,0,0,1,20.46,84a32.13,32.13,0,0,1,7.23,1.23c1,.31,2.08.69,2.23,1.69.08.85,0,1.7.08,2.54Z" transform="translate(0 2)"/>
      <g>
        <g>
          <path class="cls-10" d="M145.72,104.84h5.16v2.84h-5.16Z" transform="translate(0 2)"/>
          <path class="cls-10" d="M150.81,89.51V89c-.36-3.49-2.54-4.58-2.54-4.58s-2.18,1.09-2.55,4.58v13.88h5.09Z" transform="translate(0 2)"/>
        </g>
        <g>
          <path class="cls-10" d="M153.28,104.84h5.16v2.84h-5.16Z" transform="translate(0 2)"/>
          <path class="cls-10" d="M158.37,89.51V89c-.36-3.49-2.54-4.58-2.54-4.58s-2.18,1.09-2.55,4.58v13.88h5.09Z" transform="translate(0 2)"/>
        </g>
        <g>
          <path class="cls-10" d="M160.84,104.84H166v2.84h-5.16Z" transform="translate(0 2)"/>
          <path class="cls-10" d="M165.93,89.51V89c-.37-3.49-2.55-4.58-2.55-4.58s-2.18,1.09-2.54,4.58v13.88h5.09Z" transform="translate(0 2)"/>
        </g>
      </g>
      <path class="cls-11" d="M298.26,93.21h-4.68V88.54a1.67,1.67,0,0,0-1.68-1.68H288a1.67,1.67,0,0,0-1.69,1.68v4.67h-4.61A1.68,1.68,0,0,0,280,94.89v3.93a1.68,1.68,0,0,0,1.68,1.68h4.68v4.67a1.67,1.67,0,0,0,1.68,1.69H292a1.67,1.67,0,0,0,1.68-1.69V100.5h4.68A1.68,1.68,0,0,0,300,98.82V94.89A1.77,1.77,0,0,0,298.26,93.21Z" transform="translate(0 2)"/>
      <text class="cls-12" transform="matrix(0.93, 0, -0.26, 0.97, 3.83, 66.55)">MMR</text>
    </g>
  </g>
  <g id="底栏">
    <image width="1098" height="449" transform="translate(204 152) scale(0.18)" xlink:href="images_hero_zarya_career-portrait.png"/>
    <text class="cls-13" transform="matrix(0.93, 0, -0.26, 0.97, 3.73, 166.89)"><tspan class="cls-14">D</tspan><tspan class="cls-15" x="7.95" y="0">at</tspan><tspan x="21.2" y="0">a</tspan></text>
    <g id="_1" data-name="1">
      <text class="cls-16" transform="matrix(0.93, 0, -0.26, 0.97, 40.48, 175.27)">1.31</text>
      <text class="cls-17" transform="matrix(0.93, 0, -0.26, 0.97, 43.56, 186.43)">胜率</text>
    </g>
    <g id="_2" data-name="2">
      <text class="cls-16" transform="matrix(0.93, 0, -0.26, 0.97, 40.18, 215.33)">883</text>
      <text class="cls-17" transform="matrix(0.93, 0, -0.26, 0.97, 43.26, 226.49)">胜场数</text>
    </g>
    <g id="_3" data-name="3">
      <text class="cls-16" transform="matrix(0.93, 0, -0.26, 0.97, 120.18, 175.33)">12081</text>
      <text class="cls-17" transform="matrix(0.93, 0, -0.26, 0.97, 123.26, 186.49)">消灭</text>
    </g>
    <g id="_4" data-name="4">
      <text class="cls-16" transform="matrix(0.93, 0, -0.26, 0.97, 120.18, 215.33)">4478</text>
      <text class="cls-17" transform="matrix(0.93, 0, -0.26, 0.97, 123.26, 226.49)">阵亡</text>
    </g>
    <g id="_5-2" data-name="5">
      <text class="cls-16" transform="matrix(0.93, 0, -0.26, 0.97, 200.18, 175.33)">393</text>
      <text class="cls-17" transform="matrix(0.93, 0, -0.26, 0.97, 203.26, 186.49)">重力喷涌消灭</text>
    </g>
    <g id="_6" data-name="6">
      <text class="cls-16" transform="matrix(0.93, 0, -0.26, 0.97, 200.18, 215.33)">1422</text>
      <text class="cls-17" transform="matrix(0.93, 0, -0.26, 0.97, 203.26, 226.49)">高能消灭</text>
    </g>
  </g>
</svg>
