<svg xmlns="http://www.w3.org/2000/svg" xmlns:xlink="http://www.w3.org/1999/xlink" viewBox="0 0 400 232">
  <defs>
    <style>
      .cls-1 {
        fill: #f2f1ed;
      }

      .cls-2 {
        fill: #ed891d;
      }

      .cls-13, .cls-3 {
        fill: #3d3e7c;
      }

      .cls-4 {
        fill: none;
        stroke: #fff;
        stroke-miterlimit: 10;
      }

      .cls-5 {
        font-size: 10.57px;
      }

      .cls-12, .cls-5, .cls-6, .cls-8 {
        fill: #f0edf2;
      }

      .cls-12, .cls-13, .cls-16, .cls-5, .cls-6, .cls-8 {
        font-family: BebasNeue-Regular, Bebas Neue;
      }

      .cls-6 {
        font-size: 38px;
      }

      .cls-7 {
        letter-spacing: -0.09em;
      }

      .cls-8 {
        font-size: 12.25px;
      }

      .cls-9 {
        fill: #fff;
      }

      .cls-10, .cls-11 {
        fill: #293650;
      }

      .cls-11 {
        fill-rule: evenodd;
      }

      .cls-12, .cls-13 {
        font-size: 19.68px;
      }

      .cls-14 {
        letter-spacing: 0em;
      }

      .cls-15 {
        letter-spacing: -0.05em;
      }

      .cls-16 {
        font-size: 26px;
      }

      .cls-17 {
        font-size: 10px;
        font-family: MicrosoftYaHei, Microsoft YaHei;
      }
    </style>
  </defs>
  <g id="背景">
    <g>
      <rect class="cls-1" y="147.64" width="400" height="84.36"/>
      <rect class="cls-2" y="47.45" width="400" height="100.18"/>
      <rect class="cls-3" width="400" height="47.45"/>
    </g>
  </g>
  <g id="顶栏">
    <g id="赞赏等级">
      <circle id="fix" class="cls-4" cx="351" cy="25" r="7.91"/>
      <text id="等级" class="cls-5" transform="translate(348.5 28.99) scale(1.11 1)">1</text>
    </g>
    <g id="玩家名">
      <image width="128" height="128" transform="translate(5 7) scale(0.27)" xlink:href="avatar.png"/>
      <text class="cls-6" transform="matrix(0.97, 0, -0.26, 0.97, 50.22, 38.69)">Zxil<tspan class="cls-7" x="49.55" y="0">l</tspan><tspan x="59.28" y="0">y</tspan></text>
    </g>
    <g id="等级-2" data-name="等级">
      <image width="256" height="256" transform="translate(254 2) scale(0.18)" xlink:href="level.png"/>
      <image width="256" height="128" transform="translate(255 24) scale(0.17)" xlink:href="level_star.png"/>
      <text id="等级-3" data-name="等级" class="cls-8" transform="translate(268 28.63) scale(1.11 1)">123</text>
    </g>
    <g id="图层_2" data-name="图层 2">
      <g id="顶栏-2" data-name="顶栏">
        <g id="赞赏等级-2" data-name="赞赏等级">
          <g id="_5" data-name=" 5">
            <path class="cls-9" d="M344.34,29.89l-.24-.26a9.1,9.1,0,0,1-1.16-1.39v0l-2.14,1.24-4.88,2.81-.21,2.06,7.55-2.09.36.29.32.23.16.11.13.09.28.17.37.23.22.13.23.13h.07l.58-2.08.08-.32A9.84,9.84,0,0,1,344.34,29.89Zm-2-2.72-.06-.12c0-.13-.11-.26-.16-.38L342,26.4l-.09-.23v-.11c-.08-.21-.13-.42-.19-.64a1.8,1.8,0,0,0-.07-.22l-.08-.31c-.06-.28-.11-.57-.15-.86V22.82l-.32-.08L339,22.19v1a13.66,13.66,0,0,0,.17,1.68l-5.63,5.47,1.88.85,4.87-2.81Zm3.6-13,.23.22a9.71,9.71,0,0,1,2.05-.87h.06c.22-.07.46-.11.68-.17l.33-.07h.06l.45-.06c.2,0,.4-.06.6-.08v-8l-1.66-1.22-2,7.6-.44.17h-.09l-.49.23-.24.12-.52.28-.21.12-.28.2h0Zm11.45,1.3a9.27,9.27,0,0,1,1.31,1.42l1.65-.41.81,1.47-1.17,1.22a9.75,9.75,0,0,1,.59,1.88l2.09-.55.23-.06,4.1-5.19-1.42-2.36-6.47.93-.16.16-1.52,1.51Zm-18.23,4.9.22.05,2.09.56a3.11,3.11,0,0,1,.11-.68,9.49,9.49,0,0,1,.4-1.17L340.8,18l.8-1.47,1.68.4a9.79,9.79,0,0,1,1.33-1.4L343.09,14l-.17-.17-6.47-.91L335,15.25l4,5.14Zm22.07,9.07-2.1-1.21-.12.15c-.15.2-.3.41-.46.61l-.25.29c-.14.16-.28.31-.43.46l-.33.31-.45.38-.35.28c-.21.15-.42.28-.63.41l-.23.15.09.31.61,2.08.42-.23.14-.07.21-.13.67-.45.27-.2.48-.39,7.56,2.1-.2-2.07ZM363,24.89v-.34a1.7,1.7,0,0,1,0-.45c0-.39.06-.78.06-1.19v-.65l-2.09.55-.32.08a6.5,6.5,0,0,1-.05,1V24a5.1,5.1,0,0,1-.17,1v.11a10.22,10.22,0,0,1-.74,2.07l2.1,1.21,4.86,2.81,1.93-.87Zm-8.78,7.18a10,10,0,0,1-1.87.45l-.46,1.6h-1.7l-.46-1.61q-.6-.09-1.2-.24c-.23-.05-.44-.14-.66-.21l-.59,2.12v.22l2.42,6.11h2.76l2.43-6.07-.06-.26Zm1.68-17.68.23-.23,1.51-1.54-.25-.16-.15-.09h-.13l-.1-.06-.11-.05-.24-.13-.18-.1-.12-.14a6.58,6.58,0,0,0-.78-.29h0l-.23-.09-2-7.62-1.69,1.22v8a8.27,8.27,0,0,1,1,.12l.47.1h.14l.39.1.26.08.25.07.5.19.44.2.57.28.22.11Z" transform="translate(0 2)"/>
          </g>
        </g>
      </g>
    </g>
  </g>
  <g id="中栏">
    <g id="分数">
      <text class="cls-6" transform="matrix(0.97, 0, -0.26, 0.97, 40.37, 110.51)">1642</text>
      <text class="cls-6" transform="matrix(0.97, 0, -0.26, 0.97, 310.37, 110.96)">1600</text>
      <text class="cls-6" transform="matrix(0.97, 0, -0.26, 0.97, 176.37, 110.51)">1637</text>
    </g>
    <g id="图标">
      <path class="cls-10" d="M30,92.23V97a2.28,2.28,0,0,1-.31,1.23,29.49,29.49,0,0,1-9.08,10.16,1,1,0,0,1-1.23,0,29.6,29.6,0,0,1-9-10A2.89,2.89,0,0,1,10.07,97c0-3,.07-6,0-9-.08-2.23,1.61-2.54,3.08-2.92A29.79,29.79,0,0,1,20.46,84a32.13,32.13,0,0,1,7.23,1.23c1,.31,2.08.69,2.23,1.69.08.85,0,1.7.08,2.54Z" transform="translate(0 2)"/>
      <g>
        <g>
          <path class="cls-10" d="M145.72,104.84h5.16v2.84h-5.16Z" transform="translate(0 2)"/>
          <path class="cls-10" d="M150.81,89.51V89c-.36-3.49-2.54-4.58-2.54-4.58s-2.18,1.09-2.55,4.58v13.88h5.09Z" transform="translate(0 2)"/>
        </g>
        <g>
          <path class="cls-10" d="M153.28,104.84h5.16v2.84h-5.16Z" transform="translate(0 2)"/>
          <path class="cls-10" d="M158.37,89.51V89c-.36-3.49-2.54-4.58-2.54-4.58s-2.18,1.09-2.55,4.58v13.88h5.09Z" transform="translate(0 2)"/>
        </g>
        <g>
          <path class="cls-10" d="M160.84,104.84H166v2.84h-5.16Z" transform="translate(0 2)"/>
          <path class="cls-10" d="M165.93,89.51V89c-.37-3.49-2.55-4.58-2.55-4.58s-2.18,1.09-2.54,4.58v13.88h5.09Z" transform="translate(0 2)"/>
        </g>
      </g>
      <path class="cls-11" d="M298.26,93.21h-4.68V88.54a1.67,1.67,0,0,0-1.68-1.68H288a1.67,1.67,0,0,0-1.69,1.68v4.67h-4.61A1.68,1.68,0,0,0,280,94.89v3.93a1.68,1.68,0,0,0,1.68,1.68h4.68v4.67a1.67,1.67,0,0,0,1.68,1.69H292a1.67,1.67,0,0,0,1.68-1.69V100.5h4.68A1.68,1.68,0,0,0,300,98.82V94.89A1.77,1.77,0,0,0,298.26,93.21Z" transform="translate(0 2)"/>
      <text class="cls-12" transform="matrix(0.93, 0, -0.26, 0.97, 3.83, 66.55)">MMR</text>
    </g>
  </g>
  <g id="底栏">
    <image width="1098" height="449" transform="translate(204 152) scale(0.18)" xlink:href="images_hero_zarya_career-portrait.png"/>
    <text class="cls-13" transform="matrix(0.93, 0, -0.26, 0.97, 3.73, 166.89)"><tspan class="cls-14">D</tspan><tspan class="cls-15" x="7.95" y="0">at</tspan><tspan x="21.2" y="0">a</tspan></text>
    <g id="_1" data-name="1">
      <text class="cls-16" transform="matrix(0.93, 0, -0.26, 0.97, 40.48, 175.27)">1.31</text>
      <text class="cls-17" transform="matrix(0.93, 0, -0.26, 0.97, 43.56, 186.43)">胜率</text>
    </g>
    <g id="_2" data-name="2">
      <text class="cls-16" transform="matrix(0.93, 0, -0.26, 0.97, 40.18, 215.33)">883</text>
      <text class="cls-17" transform="matrix(0.93, 0, -0.26, 0.97, 43.26, 226.49)">胜场数</text>
    </g>
    <g id="_3" data-name="3">
      <text class="cls-16" transform="matrix(0.93, 0, -0.26, 0.97, 120.18, 175.33)">12081</text>
      <text class="cls-17" transform="matrix(0.93, 0, -0.26, 0.97, 123.26, 186.49)">消灭</text>
    </g>
    <g id="_4" data-name="4">
      <text class="cls-16" transform="matrix(0.93, 0, -0.26, 0.97, 120.18, 215.33)">4478</text>
      <text class="cls-17" transform="matrix(0.93, 0, -0.26, 0.97, 123.26, 226.49)">阵亡</text>
    </g>
    <g id="_5-2" data-name="5">
      <text class="cls-16" transform="matrix(0.93, 0, -0.26, 0.97, 200.18, 175.33)">393</text>
      <text class="cls-17" transform="matrix(0.93, 0, -0.26, 0.97, 203.26, 186.49)">重力喷涌消灭</text>
    </g>
    <g id="_6" data-name="6">
      <text class="cls-16" transform="matrix(0.93, 0, -0.26, 0.97, 200.18, 215.33)">1422</text>
      <text class="cls-17" transform="matrix(0.93, 0, -0.26, 0.97, 203.26, 226.49)">高能消灭</text>
    </g>
  </g>
</svg>
