<svg xmlns="http://www.w3.org/2000/svg" viewBox="0 0 92.59 76.02"><defs><style>.cls-1{fill:#fff;}</style></defs><g id="图层_2" data-name="图层 2"><g id="图层_3" data-name="图层 3"><g id="_2" data-name=" 2"><path class="cls-1" d="M86.7,40.74H75.6a29.25,29.25,0,0,1-7,16.37c-.37.45-.79.85-1.19,1.27A29,29,0,0,1,52,66.83V76a38.24,38.24,0,0,0,19.72-9.3l-2.65-5.18a33.09,33.09,0,0,0,5.64-7.41c.28-.51.53-1,.78-1.53l3.41-.84,3.24-.82,2.51-.62,2.65-.67,5-1.27L90.5,40.74Z"/><path class="cls-1" d="M90.56,27.11l-5.47-1.39h-.2l-1.23-.31-1.3-.33L75.71,23.3c-.25-.51-.51-1-.79-1.52a33,33,0,0,0-5.63-7.41L71.91,9.3A38.27,38.27,0,0,0,52.18,0V9.21a29,29,0,0,1,15.47,8.46c.42.42.82.84,1.21,1.29a29.61,29.61,0,0,1,2.45,3.24,29.27,29.27,0,0,1,4.43,13h15l1.83-7.63Z"/><path class="cls-1" d="M23.41,14.43a33,33,0,0,0-5.63,7.29c-.31.54-.59,1.1-.87,1.67l-3.41.84-3.24.82-2.51.62L0,27.61l1.83,7.64H17.44a29.55,29.55,0,0,1,4.45-13v-.2A29.55,29.55,0,0,1,24.26,19l.9-1A29.13,29.13,0,0,1,41.05,9.21V0A38.24,38.24,0,0,0,20.82,9.38Z"/><path class="cls-1" d="M24.54,57.11A28.75,28.75,0,0,1,22,53.82l-.15-.2a29.55,29.55,0,0,1-4.45-13H1.8L0,48.38l5,1.27,2.65.67,2.51.62,3.24.82,3.41.84a18.26,18.26,0,0,0,.93,1.75,32.81,32.81,0,0,0,5.63,7.21l-2.59,5A38.17,38.17,0,0,0,41.05,76V66.72A29.09,29.09,0,0,1,25.27,58Z"/></g></g></g></svg>