<svg xmlns="http://www.w3.org/2000/svg" viewBox="0 0 87.52 82.94"><defs><style>.cls-1{fill:#fff;}</style></defs><g id="图层_2" data-name="图层 2"><g id="图层_3" data-name="图层 3"><g id="_3" data-name=" 3"><path class="cls-1" d="M67.59,2.46l-2.5,3.86L63.59,8.6A36.38,36.38,0,0,1,80.1,37.26l2.82-.14,4.6-.26A43.76,43.76,0,0,0,67.59,2.46Z"/><path class="cls-1" d="M72.16,22.75A32.66,32.66,0,0,0,56.41,8.94l2.45-5.86A38.6,38.6,0,0,0,36.8.63a39.12,39.12,0,0,0-8.26,2.42L31,8.91a32.06,32.06,0,0,0-3.72,1.83A32.78,32.78,0,0,0,11.21,43.32l-6.39.87A39.72,39.72,0,0,0,20,70.45l4-5.19A32.79,32.79,0,0,0,60.27,67.6a31.31,31.31,0,0,0,3.44-2.31l3.86,5.07A38.88,38.88,0,0,0,82.73,44.05l-6.32-.79A32.61,32.61,0,0,0,72.16,22.75ZM61.4,62.39a29.19,29.19,0,1,1,9.2-11.92,29.16,29.16,0,0,1-9.2,11.92Z"/><path class="cls-1" d="M23.87,8.6,22.4,6.35,19.89,2.49A43.71,43.71,0,0,0,0,36.86l4.59.26,2.82.14A36.38,36.38,0,0,1,23.87,8.6Z"/><path class="cls-1" d="M60.27,71.66a36.28,36.28,0,0,1-33.08,0L26,74.08,24,78.17a43.73,43.73,0,0,0,39.72,0l-2.08-4.11Z"/></g></g></g></svg>