<svg xmlns="http://www.w3.org/2000/svg" viewBox="0 0 81.82 81.82"><defs><style>.cls-1{fill:#fff;}</style></defs><g id="图层_2" data-name="图层 2"><g id="图层_3" data-name="图层 3"><g id="_4" data-name=" 4"><path class="cls-1" d="M27.58,5l1.13.47,2.82,1.13L31,9.44l-.79,4.28a29,29,0,0,1,21.64,0l-.78-4.28-.54-2.82,2.82-1.13L54.46,5A37.8,37.8,0,0,0,27.75,5Z"/><path class="cls-1" d="M73,54.55l-7,1.3a29,29,0,0,1-1.85,2.81L67,63.88,63.93,67l-5.21-2.82A29.85,29.85,0,0,1,55.9,66l-1.29,7,4.33,1.8,16.91,7.07,6-6L74.75,58.92Z"/><path class="cls-1" d="M72.36,51l2.81-.53,1.13,2.81.48,1.13a37.8,37.8,0,0,0,0-26.71L76.3,28.8l-1.13,2.81-2.81-.53-4.29-.79a28.92,28.92,0,0,1,0,21.64Z"/><path class="cls-1" d="M50.44,75.23,51,72.41l.79-4.28a29,29,0,0,1-21.64,0l.79,4.28.53,2.82-2.81,1.13-1.13.48a37.8,37.8,0,0,0,26.71,0l-1.13-.48Z"/><path class="cls-1" d="M9.52,30.91l-2.81.53L5.58,28.63,5.1,27.5a37.8,37.8,0,0,0,0,26.71l.48-1.13,1.13-2.81,2.81.53,4.29.79a28.92,28.92,0,0,1,0-21.64Z"/><path class="cls-1" d="M26,66v-.47c-.42-.23-.81-.48-1.23-.74s-.85-.45-1.24-.73h-.17l-5.22,2.82L15.1,63.85l2.82-5.22v-.16A24.21,24.21,0,0,1,16.45,56H16l-7-1.3L7.13,58.92.06,75.82l6,6,16.91-7.08,4.33-1.8L26.6,69.2Z"/><path class="cls-1" d="M6,0,0,6l7.07,16.9,1.81,4.34,7-1.3a29,29,0,0,1,1.85-2.81l-2.81-5.22L18.06,15l5.21,2.82a30.49,30.49,0,0,1,2.82-1.86l.59-3.24L27.36,9,23,7.07Z"/><path class="cls-1" d="M58.61,17.78l6.51-4,3.07,3.07L66.13,20.2l-1.94,3.21A30.38,30.38,0,0,1,66,26.23l7,1.3L74.75,23l7.07-16.9L75.91,0,59,7.07,54.66,8.88l1.3,7A27.66,27.66,0,0,1,58.61,17.78Z"/></g></g></g></svg>