<svg xmlns="http://www.w3.org/2000/svg" viewBox="0 0 105.15 109.89"><defs><style>.cls-1{fill:#fff;}</style></defs><g id="图层_2" data-name="图层 2"><g id="图层_3" data-name="图层 3"><g id="_5" data-name=" 5"><path class="cls-1" d="M32.49,78.22c-.26-.26-.48-.54-.74-.79a30.25,30.25,0,0,1-3.49-4.17v-.17l-6.42,3.63L7.18,85.18l-.64,6.2,22.71-6.29,1.07.88,1,.67.47.34.4.28.84.51,1.1.68.68.39.68.39h.22L37.39,83l.25-1A29,29,0,0,1,32.49,78.22Zm-6.17-8.29-.17-.36c-.17-.37-.34-.76-.48-1.13l-.34-.82L25.05,67v-.34a17.65,17.65,0,0,1-.56-1.92c-.17-.65-.15-.45-.2-.67l-.2-.82a24.47,24.47,0,0,1-.45-2.56V56.89l-1-.26L16.4,55v2.9a35.71,35.71,0,0,0,.51,5.05L0,79.46,5.64,82l14.65-8.45ZM37.14,31l.67.68A28.9,28.9,0,0,1,44,29.05h.17c.68-.2,1.38-.34,2.06-.51l1-.22h.19l1.33-.17c.62,0,1.21-.17,1.83-.23V3.66L45.56,0,39.64,22.82l-1.29.51h-.28l-1.61.73-.7.37-1.58.84-.62.37-.85.59v.14Zm34.4,3.92a29.74,29.74,0,0,1,3.92,4.17l5-1.24,2.46,4.42-3.53,3.67a28.39,28.39,0,0,1,1.72,5.63l6.29-1.66.67-.17,12.32-15.61-4.2-7.18L76.7,29.75l-.48.48-4.57,4.62ZM16.76,49.51l.65.16,6.29,1.67a8.53,8.53,0,0,1,.42-2,28.65,28.65,0,0,1,1.21-3.52l-3.49-3.53,2.42-4.39,5,1.24a29.31,29.31,0,0,1,4-4.2l-4.57-4.62-.51-.51L8.76,27,4.54,34.12,16.68,49.56Zm66.3,27.24-6.31-3.63-.34.45c-.45.62-.9,1.24-1.38,1.83l-.76.87c-.42.48-.84.93-1.29,1.38l-1,.93-1.35,1.16-1.07.84c-.62.45-1.24.85-1.89,1.24l-.68.45.26.93L69,89.43l1.27-.68.42-.22.62-.39c.7-.43,1.38-.88,2-1.36l.79-.59L75.54,85l22.71,6.28-.62-6.2ZM88.39,63V62a4.8,4.8,0,0,1,.14-1.35c0-1.19.2-2.37.2-3.58v-2l-6.29,1.66-1,.25c0,1-.06,2.05-.17,3.07v.31a29,29,0,0,1-.51,3v.31a29.49,29.49,0,0,1-2.23,6.23l6.31,3.63,14.63,8.46,5.63-2.54ZM62,84.53a28.78,28.78,0,0,1-5.64,1.35L55,90.7H49.9l-1.38-4.85a29.49,29.49,0,0,1-3.61-.7c-.67-.17-1.32-.42-2-.65l-1.77,6.4-.17.64,7.29,18.35h8.29l7.3-18.23-.17-.76Zm5-53,.68-.71,4.56-4.62-.76-.48-.45-.28-.4-.11-.31-.17L70.07,25l-.73-.39-.53-.29-.37-.19a21,21,0,0,0-2.23-1H66l-.7-.28L59.31,0,54.24,3.66V27.81a27.49,27.49,0,0,1,3,.37l1.41.31h.43l1.18.28.79.25.73.23,1.52.56,1.33.59,1.69.85.67.34Z"/></g></g></g></svg>