<svg xmlns="http://www.w3.org/2000/svg" viewBox="0 0 32.86 26.98">
  <defs>
    <style>
      .cls-1 {
        fill: #f0edf2;
      }
    </style>
  </defs>
  <g id="图层_2" data-name="图层 2">
    <g id="顶栏">
      <g id="赞赏等级">
        <g id="_2" data-name=" 2">
          <path class="cls-1" d="M30.77,14.46H26.83a10.35,10.35,0,0,1-1.57,4.6,10.54,10.54,0,0,1-.9,1.21c-.13.16-.28.3-.42.45a10.36,10.36,0,0,1-5.49,3V27a13.56,13.56,0,0,0,7-3.3l-.94-1.84a11.65,11.65,0,0,0,2-2.63c.1-.18.19-.36.28-.54l1.21-.3,1.15-.29.89-.22.94-.24,1.79-.45-.65-2.71Z"/>
          <path class="cls-1" d="M32.14,9.62,30.2,9.13h-.07L29.69,9l-.46-.12-2.36-.63c-.09-.18-.18-.37-.28-.54a11.65,11.65,0,0,0-2-2.63l.93-1.8a13.56,13.56,0,0,0-7-3.3V3.27a10.36,10.36,0,0,1,5.49,3c.15.15.29.3.43.46a9.64,9.64,0,0,1,.87,1.15,10.35,10.35,0,0,1,1.57,4.6h5.33l.65-2.71Z"/>
          <path class="cls-1" d="M8.31,5.12a12,12,0,0,0-2,2.59C6.2,7.9,6.1,8.1,6,8.3l-1.21.3-1.15.29-.89.22L0,9.8l.65,2.71H6.19a10.49,10.49,0,0,1,1.58-4.6V7.84a12.78,12.78,0,0,1,.84-1.1l.32-.34a10.29,10.29,0,0,1,5.64-3.13V0A13.54,13.54,0,0,0,7.39,3.33Z"/>
          <path class="cls-1" d="M8.71,20.27a10.11,10.11,0,0,1-.9-1.17l0-.07a10.49,10.49,0,0,1-1.58-4.6H.64L0,17.17l1.79.45.94.24.89.22,1.15.29,1.21.3c.1.21.21.42.33.62a11.78,11.78,0,0,0,2,2.56l-.92,1.79A13.54,13.54,0,0,0,14.57,27V23.68A10.37,10.37,0,0,1,9,20.57Z"/>
        </g>
      </g>
    </g>
  </g>
</svg>
