<svg xmlns="http://www.w3.org/2000/svg" viewBox="0 0 31.06 29.44">
  <defs>
    <style>
      .cls-1 {
        fill: #f0edf2;
      }
    </style>
  </defs>
  <g id="图层_2" data-name="图层 2">
    <g id="顶栏">
      <g id="赞赏等级">
        <g id="_3" data-name=" 3">
          <path class="cls-1" d="M24,.87,23.1,2.24l-.53.81a12.92,12.92,0,0,1,5.86,10.17l1-.05,1.63-.09A15.51,15.51,0,0,0,24,.87Z"/>
          <path class="cls-1" d="M25.61,8.07A11.61,11.61,0,0,0,20,3.17l.87-2.08A13.73,13.73,0,0,0,13.06.22a14.09,14.09,0,0,0-2.93.86L11,3.16a13.45,13.45,0,0,0-1.32.65A11.63,11.63,0,0,0,4,15.37l-2.27.31A14.1,14.1,0,0,0,7.09,25l1.43-1.84A11.62,11.62,0,0,0,21.39,24a10.84,10.84,0,0,0,1.22-.82L24,25a13.76,13.76,0,0,0,5.38-9.34l-2.24-.28A11.6,11.6,0,0,0,25.61,8.07ZM21.79,22.14a10.35,10.35,0,1,1,3.27-4.23,10.33,10.33,0,0,1-3.27,4.23Z"/>
          <path class="cls-1" d="M8.47,3.05,8,2.25,7.06.88A15.51,15.51,0,0,0,0,13.08l1.63.09,1,.05A12.93,12.93,0,0,1,8.47,3.05Z"/>
          <path class="cls-1" d="M21.39,25.43a12.86,12.86,0,0,1-11.74,0l-.44.86-.69,1.45a15.51,15.51,0,0,0,14.1,0l-.74-1.46Z"/>
        </g>
      </g>
    </g>
  </g>
</svg>
