<svg xmlns="http://www.w3.org/2000/svg" viewBox="0 0 29.04 29.04">
  <defs>
    <style>
      .cls-1 {
        fill: #f0edf2;
      }
    </style>
  </defs>
  <g id="图层_2" data-name="图层 2">
    <g id="顶栏">
      <g id="赞赏等级">
        <g id="_4" data-name=" 4">
          <path class="cls-1" d="M9.79,1.78l.4.17,1,.4-.19,1-.28,1.52a10.3,10.3,0,0,1,7.68,0l-.28-1.52-.19-1,1-.4.4-.17a13.46,13.46,0,0,0-9.48,0Z"/>
          <path class="cls-1" d="M25.91,19.36l-2.47.46a9.6,9.6,0,0,1-.66,1l1,1.85-1.09,1.09-1.85-1a9.6,9.6,0,0,1-1,.66l-.46,2.47,1.54.64,6,2.51L29,26.92l-2.51-6Z"/>
          <path class="cls-1" d="M25.68,18.09l1-.19.4,1,.17.4a13.46,13.46,0,0,0,0-9.48l-.17.4-.4,1-1-.19-1.52-.28a10.3,10.3,0,0,1,0,7.68Z"/>
          <path class="cls-1" d="M17.9,26.7l.19-1,.28-1.52a10.3,10.3,0,0,1-7.68,0L11,25.7l.19,1-1,.4-.4.17a13.46,13.46,0,0,0,9.48,0l-.4-.17Z"/>
          <path class="cls-1" d="M3.38,11l-1,.19-.4-1-.17-.4a13.46,13.46,0,0,0,0,9.48l.17-.4.4-1,1,.19,1.52.28a10.3,10.3,0,0,1,0-7.68Z"/>
          <path class="cls-1" d="M9.24,23.44v-.17L8.8,23c-.15-.09-.3-.16-.44-.26H8.3l-1.85,1L5.36,22.66l1-1.85v-.06a7.14,7.14,0,0,1-.52-.89H5.67L3.2,19.4l-.67,1.51L0,26.91,2.14,29l6-2.51,1.54-.64-.24-1.32Z"/>
          <path class="cls-1" d="M2.12,0,0,2.11l2.51,6,.64,1.54,2.47-.46a9.6,9.6,0,0,1,.66-1l-1-1.85,1.13-1,1.85,1a9.6,9.6,0,0,1,1-.66L9.47,4.5l.24-1.32L8.15,2.51Z"/>
          <path class="cls-1" d="M20.8,6.31l2.31-1.42L24.2,6l-.73,1.19-.69,1.14a9.6,9.6,0,0,1,.66,1l2.47.46.62-1.62,2.51-6L26.94,0l-6,2.51-1.54.64.46,2.47A9.07,9.07,0,0,1,20.8,6.31Z"/>
        </g>
      </g>
    </g>
  </g>
</svg>
