<svg xmlns="http://www.w3.org/2000/svg" viewBox="0 0 35 36.58">
  <defs>
    <style>
      .cls-1 {
        fill: #fff;
      }
    </style>
  </defs>
  <g id="图层_2" data-name="图层 2">
    <g id="顶栏">
      <g id="赞赏等级">
        <g id="_5" data-name=" 5">
          <path class="cls-1" d="M10.81,26l-.24-.26a9.1,9.1,0,0,1-1.16-1.39v-.05L7.27,25.54,2.39,28.35l-.21,2.06,7.55-2.09.36.29.32.23.16.11.13.09.28.17.37.23.22.13.23.13h.07l.58-2.08.08-.32A9.67,9.67,0,0,1,10.81,26ZM8.76,23.28l-.06-.12c0-.13-.11-.26-.16-.38l-.11-.27-.09-.23v-.11c-.08-.21-.13-.42-.19-.64s-.05-.15-.07-.22L8,21a8.6,8.6,0,0,1-.15-.86V18.93l-.32-.08L5.46,18.3v1a11.66,11.66,0,0,0,.17,1.68L0,26.45l1.88.85,4.87-2.81Zm3.6-13,.23.22a9.29,9.29,0,0,1,2.05-.87h.06c.22-.07.46-.11.68-.17l.33-.07h.06l.45-.06c.2,0,.4-.06.6-.08V1.22L15.16,0l-2,7.6-.44.17h-.09L12.14,8l-.24.12-.52.28-.21.12-.28.2v0Zm11.45,1.3A9.58,9.58,0,0,1,25.12,13l1.65-.41.81,1.47-1.17,1.22A10.1,10.1,0,0,1,27,17.16l2.09-.55.23-.06,4.1-5.19L32,9l-6.47.93-.16.16L23.85,11.6ZM5.58,16.48l.22.05,2.09.56A2.74,2.74,0,0,1,8,16.41a9.49,9.49,0,0,1,.4-1.17L7.27,14.07l.8-1.47L9.75,13a9.79,9.79,0,0,1,1.33-1.4L9.56,10.08l-.17-.17L2.92,9,1.51,11.36l4,5.14Zm22.07,9.07-2.1-1.21-.12.15c-.15.2-.3.41-.46.61l-.25.29c-.14.16-.28.31-.43.46l-.33.31-.45.38-.35.28c-.21.15-.42.28-.63.41l-.23.15.09.31L23,29.77l.42-.23.14-.07.21-.13.67-.45.27-.2.48-.39,7.56,2.1-.2-2.07ZM29.42,21v-.34a1.51,1.51,0,0,1,0-.45c0-.39.06-.78.06-1.19v-.65l-2.09.55-.32.08c0,.34,0,.69-.05,1v.1c0,.33-.1.66-.17,1v.11a10.22,10.22,0,0,1-.74,2.07l2.1,1.21,4.86,2.81L35,26.43Zm-8.78,7.18a10.18,10.18,0,0,1-1.87.45l-.46,1.6h-1.7l-.46-1.61a11.58,11.58,0,0,1-1.2-.24c-.23-.05-.44-.14-.66-.21l-.59,2.12,0,.22,2.42,6.11h2.76l2.43-6.07-.06-.26ZM22.32,10.5l.23-.23,1.51-1.54-.25-.16-.15-.09-.13,0-.1-.06-.11-.05-.24-.13-.18-.1L22.78,8A7,7,0,0,0,22,7.71H22l-.23-.09L19.74,0,18.05,1.22v8a8.69,8.69,0,0,1,1,.12l.47.1h.14l.39.1.26.08.25.07.5.19.44.2.57.28.22.11Z"/>
        </g>
      </g>
    </g>
  </g>
</svg>
